G04 #@! TF.GenerationSoftware,KiCad,Pcbnew,8.0.1*
G04 #@! TF.CreationDate,2024-04-26T15:43:04-05:00*
G04 #@! TF.ProjectId,HCIPCB_ATSAMD21G18_template,48434950-4342-45f4-9154-53414d443231,rev?*
G04 #@! TF.SameCoordinates,Original*
G04 #@! TF.FileFunction,Paste,Top*
G04 #@! TF.FilePolarity,Positive*
%FSLAX46Y46*%
G04 Gerber Fmt 4.6, Leading zero omitted, Abs format (unit mm)*
G04 Created by KiCad (PCBNEW 8.0.1) date 2024-04-26 15:43:04*
%MOMM*%
%LPD*%
G01*
G04 APERTURE LIST*
G04 Aperture macros list*
%AMRoundRect*
0 Rectangle with rounded corners*
0 $1 Rounding radius*
0 $2 $3 $4 $5 $6 $7 $8 $9 X,Y pos of 4 corners*
0 Add a 4 corners polygon primitive as box body*
4,1,4,$2,$3,$4,$5,$6,$7,$8,$9,$2,$3,0*
0 Add four circle primitives for the rounded corners*
1,1,$1+$1,$2,$3*
1,1,$1+$1,$4,$5*
1,1,$1+$1,$6,$7*
1,1,$1+$1,$8,$9*
0 Add four rect primitives between the rounded corners*
20,1,$1+$1,$2,$3,$4,$5,0*
20,1,$1+$1,$4,$5,$6,$7,0*
20,1,$1+$1,$6,$7,$8,$9,0*
20,1,$1+$1,$8,$9,$2,$3,0*%
G04 Aperture macros list end*
%ADD10R,0.700000X1.500000*%
%ADD11RoundRect,0.237500X-0.287500X-0.237500X0.287500X-0.237500X0.287500X0.237500X-0.287500X0.237500X0*%
%ADD12RoundRect,0.237500X-0.300000X-0.237500X0.300000X-0.237500X0.300000X0.237500X-0.300000X0.237500X0*%
%ADD13RoundRect,0.237500X-0.250000X-0.237500X0.250000X-0.237500X0.250000X0.237500X-0.250000X0.237500X0*%
%ADD14RoundRect,0.237500X0.237500X-0.250000X0.237500X0.250000X-0.237500X0.250000X-0.237500X-0.250000X0*%
%ADD15R,0.720000X0.600000*%
%ADD16RoundRect,0.237500X0.250000X0.237500X-0.250000X0.237500X-0.250000X-0.237500X0.250000X-0.237500X0*%
%ADD17RoundRect,0.237500X0.237500X-0.300000X0.237500X0.300000X-0.237500X0.300000X-0.237500X-0.300000X0*%
%ADD18R,1.600000X1.400000*%
%ADD19R,1.200000X0.600000*%
%ADD20RoundRect,0.150000X-0.512500X-0.150000X0.512500X-0.150000X0.512500X0.150000X-0.512500X0.150000X0*%
%ADD21RoundRect,0.237500X-0.237500X0.250000X-0.237500X-0.250000X0.237500X-0.250000X0.237500X0.250000X0*%
%ADD22R,1.800000X1.000000*%
%ADD23RoundRect,0.237500X0.300000X0.237500X-0.300000X0.237500X-0.300000X-0.237500X0.300000X-0.237500X0*%
%ADD24RoundRect,0.250001X-0.462499X-1.074999X0.462499X-1.074999X0.462499X1.074999X-0.462499X1.074999X0*%
%ADD25R,0.600000X1.150000*%
%ADD26R,0.300000X1.150000*%
%ADD27RoundRect,0.075000X-0.662500X-0.075000X0.662500X-0.075000X0.662500X0.075000X-0.662500X0.075000X0*%
%ADD28RoundRect,0.075000X-0.075000X-0.662500X0.075000X-0.662500X0.075000X0.662500X-0.075000X0.662500X0*%
%ADD29RoundRect,0.550000X-0.550000X-0.720000X0.550000X-0.720000X0.550000X0.720000X-0.550000X0.720000X0*%
G04 APERTURE END LIST*
D10*
X135000000Y-109696335D03*
X138000000Y-109696335D03*
X139500000Y-109696335D03*
D11*
X126750000Y-102500000D03*
X128500000Y-102500000D03*
D12*
X138275000Y-90500000D03*
X140000000Y-90500000D03*
D13*
X114087500Y-91675000D03*
X115912500Y-91675000D03*
D12*
X161637500Y-101500000D03*
X163362500Y-101500000D03*
D13*
X100087500Y-91000000D03*
X101912500Y-91000000D03*
D14*
X127500000Y-107325000D03*
X127500000Y-105500000D03*
D15*
X108090000Y-92175000D03*
X109060000Y-92175000D03*
X110030000Y-92175000D03*
X111000000Y-92175000D03*
X111000000Y-93575000D03*
X110030000Y-93575000D03*
X109060000Y-93575000D03*
X108090000Y-93575000D03*
D16*
X93912500Y-102000000D03*
X92087500Y-102000000D03*
D13*
X112587500Y-101675000D03*
X114412500Y-101675000D03*
D14*
X120000000Y-94412500D03*
X120000000Y-92587500D03*
D12*
X112000000Y-87175000D03*
X113725000Y-87175000D03*
D14*
X105000000Y-93000000D03*
X105000000Y-91175000D03*
D16*
X114412500Y-97675000D03*
X112587500Y-97675000D03*
D17*
X148500000Y-110912500D03*
X148500000Y-109187500D03*
D13*
X118175000Y-90000000D03*
X120000000Y-90000000D03*
D12*
X157637500Y-101500000D03*
X159362500Y-101500000D03*
D18*
X93300000Y-79500000D03*
X100500000Y-79500000D03*
X93300000Y-82500000D03*
X100500000Y-82500000D03*
D13*
X98587500Y-96000000D03*
X100412500Y-96000000D03*
D12*
X108137500Y-98675000D03*
X109862500Y-98675000D03*
D19*
X153000000Y-109050000D03*
X153000000Y-110000000D03*
X153000000Y-110950000D03*
X155500000Y-110950000D03*
X155500000Y-109050000D03*
D20*
X153587500Y-91050000D03*
X153587500Y-92950000D03*
X155862500Y-92000000D03*
D21*
X155000000Y-104637500D03*
X155000000Y-106462500D03*
D18*
X122900000Y-90500000D03*
X130100000Y-90500000D03*
X122900000Y-93500000D03*
X130100000Y-93500000D03*
D12*
X165637500Y-101500000D03*
X167362500Y-101500000D03*
D22*
X134500000Y-95250000D03*
X134500000Y-92750000D03*
D23*
X134362500Y-99000000D03*
X132637500Y-99000000D03*
D18*
X92800000Y-106000000D03*
X100000000Y-106000000D03*
X92800000Y-109000000D03*
X100000000Y-109000000D03*
D24*
X148512500Y-88000000D03*
X151487500Y-88000000D03*
D25*
X159480000Y-105407500D03*
X160280000Y-105407500D03*
D26*
X161430000Y-105407500D03*
X162430000Y-105407500D03*
X162930000Y-105407500D03*
X163930000Y-105407500D03*
D25*
X165880000Y-105407500D03*
X165080000Y-105407500D03*
D26*
X164430000Y-105407500D03*
X163430000Y-105407500D03*
X161930000Y-105407500D03*
X160930000Y-105407500D03*
D27*
X139087500Y-96087500D03*
X139087500Y-96587500D03*
X139087500Y-97087500D03*
X139087500Y-97587500D03*
X139087500Y-98087500D03*
X139087500Y-98587500D03*
X139087500Y-99087500D03*
X139087500Y-99587500D03*
X139087500Y-100087500D03*
X139087500Y-100587500D03*
X139087500Y-101087500D03*
X139087500Y-101587500D03*
D28*
X140500000Y-103000000D03*
X141000000Y-103000000D03*
X141500000Y-103000000D03*
X142000000Y-103000000D03*
X142500000Y-103000000D03*
X143000000Y-103000000D03*
X143500000Y-103000000D03*
X144000000Y-103000000D03*
X144500000Y-103000000D03*
X145000000Y-103000000D03*
X145500000Y-103000000D03*
X146000000Y-103000000D03*
D27*
X147412500Y-101587500D03*
X147412500Y-101087500D03*
X147412500Y-100587500D03*
X147412500Y-100087500D03*
X147412500Y-99587500D03*
X147412500Y-99087500D03*
X147412500Y-98587500D03*
X147412500Y-98087500D03*
X147412500Y-97587500D03*
X147412500Y-97087500D03*
X147412500Y-96587500D03*
X147412500Y-96087500D03*
D28*
X146000000Y-94675000D03*
X145500000Y-94675000D03*
X145000000Y-94675000D03*
X144500000Y-94675000D03*
X144000000Y-94675000D03*
X143500000Y-94675000D03*
X143000000Y-94675000D03*
X142500000Y-94675000D03*
X142000000Y-94675000D03*
X141500000Y-94675000D03*
X141000000Y-94675000D03*
X140500000Y-94675000D03*
D11*
X104000000Y-101675000D03*
X105750000Y-101675000D03*
D18*
X104900000Y-106000000D03*
X112100000Y-106000000D03*
X104900000Y-109000000D03*
X112100000Y-109000000D03*
D12*
X154000000Y-97500000D03*
X155725000Y-97500000D03*
D14*
X118000000Y-97825000D03*
X118000000Y-96000000D03*
X127500000Y-111325000D03*
X127500000Y-109500000D03*
X104000000Y-88087500D03*
X104000000Y-86262500D03*
D29*
X172000000Y-92000000D03*
X162000000Y-92000000D03*
D11*
X164487500Y-96500000D03*
X166237500Y-96500000D03*
X117000000Y-101675000D03*
X118750000Y-101675000D03*
D23*
X104362500Y-97175000D03*
X102637500Y-97175000D03*
D18*
X105000000Y-79500000D03*
X112200000Y-79500000D03*
X105000000Y-82500000D03*
X112200000Y-82500000D03*
D13*
X159537500Y-96500000D03*
X161362500Y-96500000D03*
D18*
X116800000Y-106000000D03*
X124000000Y-106000000D03*
X116800000Y-109000000D03*
X124000000Y-109000000D03*
D23*
X134500000Y-90000000D03*
X132775000Y-90000000D03*
D13*
X108087500Y-101675000D03*
X109912500Y-101675000D03*
M02*
