M48
; DRILL file {KiCad 8.0.1} date 2024-04-26T15:43:32-0500
; FORMAT={-:-/ absolute / metric / decimal}
; #@! TF.CreationDate,2024-04-26T15:43:32-05:00
; #@! TF.GenerationSoftware,Kicad,Pcbnew,8.0.1
; #@! TF.FileFunction,Plated,1,2,PTH
FMAT,2
METRIC
; #@! TA.AperFunction,Plated,PTH,ViaDrill
T1C0.300
; #@! TA.AperFunction,Plated,PTH,ComponentDrill
T2C0.600
; #@! TA.AperFunction,Plated,PTH,ComponentDrill
T3C1.000
%
G90
G05
T1
X96.0Y-94.0
X99.0Y-98.5
X101.0Y-93.5
X101.0Y-104.0
X102.0Y-85.0
X106.337Y-100.511
X108.485Y-92.9
X108.5Y-86.0
X108.5Y-103.0
X109.385Y-95.5
X110.0Y-100.0
X110.0Y-102.5
X111.913Y-91.087
X112.0Y-88.5
X112.0Y-103.0
X112.5Y-92.0
X113.5Y-88.5
X113.5Y-99.5
X115.294Y-100.381
X115.5Y-84.5
X115.913Y-101.913
X116.0Y-90.5
X116.0Y-96.0
X117.0Y-97.0
X117.5Y-92.0
X118.0Y-100.5
X118.5Y-103.0
X119.0Y-91.5
X119.0Y-100.0
X119.413Y-96.413
X119.5Y-77.5
X119.5Y-86.5
X119.5Y-95.5
X119.5Y-98.0
X119.64Y-80.36
X121.0Y-89.0
X121.0Y-90.0
X121.0Y-97.0
X121.5Y-93.0
X121.5Y-96.0
X122.0Y-97.0
X122.9Y-90.5
X123.0Y-85.0
X125.5Y-98.0
X125.5Y-107.0
X126.5Y-104.0
X126.5Y-105.0
X126.587Y-84.413
X127.0Y-96.5
X127.0Y-99.5
X127.5Y-91.5
X128.0Y-93.0
X128.5Y-99.5
X128.5Y-109.5
X129.5Y-97.0
X130.5Y-100.0
X131.0Y-98.5
X131.5Y-87.5
X131.97Y-84.174
X132.0Y-100.5
X133.5Y-86.0
X133.5Y-100.5
X134.0Y-87.5
X134.0Y-102.591
X134.5Y-101.637
X135.0Y-100.0
X136.0Y-100.0
X136.0Y-103.0
X136.5Y-95.5
X136.5Y-101.5
X137.0Y-93.5
X137.5Y-96.0
X137.5Y-100.5
X138.0Y-95.0
X138.5Y-92.0
X139.0Y-87.5
X139.0Y-106.0
X139.493Y-102.114
X140.5Y-97.5
X140.5Y-100.0
X140.5Y-106.5
X141.0Y-104.5
X141.5Y-93.5
X141.5Y-105.5
X141.5Y-107.802
X142.0Y-96.0
X142.0Y-100.5
X142.0Y-108.5
X143.087Y-93.087
X143.348Y-106.477
X143.5Y-99.0
X143.5Y-101.5
X143.5Y-110.0
X143.663Y-104.837
X144.0Y-93.5
X144.5Y-100.0
X144.587Y-92.413
X144.631Y-95.869
X145.0Y-101.5
X145.0Y-104.5
X145.5Y-96.0
X145.5Y-100.0
X146.0Y-99.0
X146.477Y-99.652
X147.087Y-92.913
X147.5Y-95.0
X148.5Y-95.5
X148.5Y-100.0
X148.5Y-103.5
X149.0Y-96.564
X149.5Y-93.5
X149.5Y-95.5
X149.5Y-100.5
X150.0Y-98.5
X150.0Y-99.5
X151.5Y-92.5
X151.5Y-110.5
X152.0Y-109.5
X152.675Y-93.0
X153.0Y-111.623
X155.975Y-102.041
X156.0Y-103.0
X156.0Y-104.5
X156.0Y-106.0
X156.541Y-101.475
X157.0Y-92.0
X157.0Y-106.0
X157.0Y-111.95
X159.5Y-99.5
X159.5Y-100.5
X160.0Y-98.0
X161.0Y-95.5
X161.0Y-103.373
X161.5Y-107.0
X161.922Y-103.078
X163.413Y-103.087
X165.5Y-102.5
X172.0Y-95.5
T3
X94.5Y-88.5
X94.5Y-91.04
X94.5Y-93.58
X94.5Y-96.12
X128.96Y-77.96
X128.96Y-80.5
X128.96Y-83.04
X128.96Y-85.58
X131.5Y-77.96
X131.5Y-80.5
X131.5Y-83.04
X131.5Y-85.58
T2
X158.36Y-105.432G85X158.36Y-106.532
G05
X158.36Y-109.762G85X158.36Y-110.562
G05
X167.0Y-105.432G85X167.0Y-106.532
G05
X167.0Y-109.762G85X167.0Y-110.562
G05
M30
